<?xml version="1.0" encoding="UTF-8"?><svg id="Capa_2" xmlns="http://www.w3.org/2000/svg" viewBox="0 0 904.56 265.58"><defs><style>.cls-1{fill-rule:evenodd;}.cls-1,.cls-2{fill:#002e8e;}</style></defs><g id="Imagotipo"><path class="cls-1" d="M761.58,123.78c4.22,1.6,8.44,3.2,12.62,4.9v.02c14.72,6,22.13,16.87,21.5,32.71l-.03.78c-.19,4.91-.38,9.91-1.51,14.67-3.18,13.35-12.98,19.98-25.81,22.45-15.12,2.89-30.22,1.74-45.1-1.89-5.6-1.37-6.63-2.99-6.63-8.65v-7.15c2.65.25,5.26.54,7.84.82h0c5.91.65,11.68,1.28,17.47,1.42,6.96.18,14.02-.27,20.87-1.44,7.89-1.35,12.45-6.68,13.11-14.6.33-3.91.05-7.97-.63-11.86-.76-4.39-3.88-7.5-7.89-9.27-4.06-1.8-8.21-3.43-12.35-5.06h0c-2.46-.97-4.92-1.94-7.36-2.94-1.03-.42-2.06-.84-3.1-1.26h0c-3.83-1.55-7.67-3.11-11.34-4.97-11.8-5.95-17.57-15.87-17.72-28.72-.07-5.63.48-11.48,2.04-16.89,3.55-12.33,13.06-18.49,25.23-20.73,14.19-2.62,28.36-1.62,42.35,1.74,4.74,1.15,5.74,2.59,5.8,7.27v8c-2.56-.22-5.06-.44-7.52-.66-4.07-.36-8.03-.72-11.99-1.01-8.24-.62-16.51-.95-24.58,1.42-8.24,2.42-11.65,7.2-12.05,15.64-.55,11.93,4.16,16.24,13.51,20.08,4.39,1.8,8.83,3.48,13.27,5.16ZM889.92,129.18c6.03,21.92,10.81,44.12,14.49,66.54h.08c.1.63.07,1.28.04,2.01-.02.4-.04.83-.04,1.3-1.69,0-3.36.01-5.03.03-3.85.03-7.65.06-11.46-.08-2.25-.07-3.25-1.79-3.63-3.94-.67-3.75-1.35-7.5-2.03-11.26-1.16-6.36-2.32-12.73-3.39-19.11-.4-2.32-1.46-2.79-3.5-2.79-12.53.05-25.03.08-37.53,0-2.27-.02-3.23.67-3.6,3.04-1,6.17-2.09,12.34-3.19,18.5v.02c-.77,4.35-1.54,8.71-2.28,13.06-.3,1.79-.9,2.67-2.95,2.59-2.34-.09-4.7-.07-7.05-.05-1.57.01-3.14.02-4.72,0-3.1-.05-4.54-1.27-4.16-4.33.81-6.45,1.82-12.91,3.13-19.28,7.03-33.86,16.06-67.17,28.86-99.38.3-.77.57-1.6.84-2.44h0c.8-2.46,1.61-4.97,3.32-6.16,1.53-1.06,3.97-.86,6.4-.66,1.01.08,2.02.17,2.95.16,1.09-.02,2.18,0,3.28.02,1.8.03,3.6.07,5.39-.07,3.43-.25,5.04,1.47,6.2,4.34,7.64,18.93,14.19,38.24,19.59,57.92M856.52,83.74c-7.36,20.68-14.11,41.43-19.06,63.08h38.49c-5.02-21.67-11.7-42.45-19.44-63.08M496.8,119.39c-3.42-11.01-7.32-21.88-11.23-32.74-1.85-5.16-3.71-10.31-5.51-15.49-1.03-2.97-2.9-4.49-6.25-4.24-1.85.14-3.71.11-5.58.07-1.14-.02-2.28-.04-3.42-.02-.9.01-1.87-.06-2.84-.13-2.33-.17-4.68-.35-6.21.67-1.58,1.06-2.32,3.41-3.05,5.7-.26.82-.52,1.63-.81,2.38-12.88,32.31-21.93,65.72-29.02,99.65-1.31,6.28-2.34,12.61-3.12,18.96-.46,3.63.93,4.81,4.59,4.83,1.32,0,2.63,0,3.94-.01,2.41-.02,4.81-.04,7.22.06,2.14.1,2.82-.77,3.15-2.72.89-5.32,1.83-10.63,2.76-15.94.93-5.31,1.87-10.63,2.76-15.94.33-1.92,1.13-2.61,3.03-2.59,12.83.02,25.64.02,38.47,0,1.86,0,2.69.65,3.02,2.59.96,5.68,1.99,11.34,3.02,17h0s0,.01,0,.01h0v.02h0c.81,4.45,1.62,8.89,2.39,13.34.43,2.42,1.49,4.11,4.08,4.18,3.6.09,7.21.06,10.97.04h.02c1.71,0,3.45-.02,5.22-.02-.03-.53-.04-.99-.04-1.43-.01-.76-.02-1.4-.14-2.03-4.21-25.76-9.6-51.27-17.37-76.21h-.08ZM446.53,146.79c6.45-21.58,12.68-42.4,18.91-63.23.21.02.42.04.64.07h0c.2.02.39.04.6.06,7.36,20.63,13.99,41.45,19.03,63.13h-39.17v-.02ZM669.86,86.68h0c-1.86-5.16-3.73-10.32-5.53-15.5-1.11-3.16-3.1-4.46-6.55-4.28-4.64.25-9.33.3-13.94,0-3.23-.22-4.64.92-5.82,3.81-13.76,33.83-23.42,68.86-30.88,104.53-1.34,6.38-2.35,12.81-3.15,19.28-.43,3.39,1,4.53,4.54,4.56,1.32,0,2.63,0,3.94-.01h0c2.41-.02,4.81-.04,7.22.06,2.09.07,2.85-.67,3.17-2.67.9-5.32,1.83-10.63,2.76-15.94.93-5.31,1.86-10.63,2.76-15.94.3-1.89,1.06-2.64,3-2.64,12.8.05,25.58.02,38.39,0h.08c1.84,0,2.72.57,3.05,2.54.96,5.68,1.99,11.34,3.02,17h0s0,.02,0,.02h0s0,.02,0,.02h0s0,.02,0,.02c.81,4.43,1.61,8.87,2.39,13.32.43,2.39,1.46,4.16,4.03,4.21,3.61.09,7.23.07,10.96.05h0c1.68-.01,3.39-.02,5.12-.02,0-.5.02-.95.04-1.37h0c.04-.76.06-1.42-.04-2.04-4.23-25.96-9.73-51.67-17.49-76.8l-.02-.02c-3.35-10.82-7.2-21.48-11.05-32.16h0s0,0,0,0h0ZM630.8,146.74l2.24-7.48h0c5.66-18.93,11.17-37.34,16.7-55.75h0c.4.05.8.1,1.18.15,7.38,20.58,13.89,41.38,19.08,63.08h-39.2ZM409.98,67l-2.39-.02c-3.96-.03-7.91-.05-11.88.09-.7.02-1.89,1.12-2.02,1.87-.75,4.32-1.43,8.66-2.12,13-.74,4.72-1.49,9.44-2.32,14.13-4.89,27.43-11.97,54.26-21.25,80.57-.15.47-.42.91-.76,1.47h0c-.15.25-.32.53-.5.84l-.42-.91c-.36-.78-.64-1.38-.87-2.01-7.54-20.83-13.49-42.1-18-63.75-1.67-8.01-3.08-16.07-4.49-24.13-.99-5.68-1.99-11.35-3.07-17-.3-1.52-1.87-3.86-2.97-3.94-4.42-.29-8.86-.25-13.4-.21-1.65.01-3.3.03-4.98.03.16,1.13.31,2.23.45,3.3.28,2.12.55,4.13.89,6.12,4.36,25.11,10.08,49.9,17.9,74.19,3.74,11.65,7.88,23.19,12.01,34.72.99,2.77,1.98,5.54,2.97,8.3,1.71,4.81,2.92,5.43,8.04,5.43h8.75c8.19,0,8.27,0,11.16-7.5,12.71-32.88,22.16-66.72,29.19-101.19,1.05-5.13,1.85-10.31,2.64-15.5h0s0-.02,0-.02h0s0-.02,0-.02c.19-1.25.38-2.49.58-3.74.38-2.37-.43-4.09-3.2-4.11l.05-.02ZM600.02,67c-1.47-.02-2.95,0-4.42,0-2.45.02-4.91.04-7.35-.08-2.35-.12-3.08.8-3.65,2.94-5.67,20.83-13.79,40.73-23.72,59.94-.22.44-.54.85-.92,1.33-.17.22-.35.45-.54.71-.27-.47-.53-.89-.77-1.27h0c-.38-.61-.71-1.14-.97-1.69-1.2-2.61-2.42-5.21-3.65-7.81h0c-3.17-6.73-6.34-13.46-9.1-20.36-2.32-5.79-4.31-11.71-6.3-17.64h0c-1.32-3.93-2.64-7.86-4.06-11.76-.58-1.62-2.17-3.98-3.43-4.08-4.55-.31-9.11-.27-13.69-.23-1.58.02-3.17.03-4.76.03,0,.26,0,.47-.02.64h0c-.01.27-.02.46.02.63.3,1.17.63,2.37.98,3.51,7.89,26.01,19.34,50.47,33.43,73.74,1.56,2.56,2.22,5.08,2.19,8.07-.05,7.29-.05,14.6-.05,21.9v.02c0,6.38,0,12.76-.03,19.14,0,2.79,1.16,4.31,3.93,4.36,3.34.06,6.67.04,10.15.02h0c1.8-.01,3.63-.02,5.53-.02v-3.66c0-3.53,0-7.05,0-10.58.01-10.57.02-21.15-.06-31.72,0-2.77.61-5.13,2.04-7.5,13.59-22.37,24.7-45.86,32.6-70.8l.09-.28h0c.3-.98.6-1.96.69-2.95.3-3.14-.98-4.53-4.24-4.56l.08.02Z"/><path class="cls-1" d="M38.13,137.54l-25.07-4.41c-2.42-.43-4.63,1.44-4.63,3.89v124.61c0,2.18,1.77,3.95,3.95,3.95h25.07c2.18,0,3.95-1.77,3.95-3.95v-120.2c0-1.92-1.38-3.56-3.27-3.89"/><path class="cls-1" d="M49.82,67.05c0,13.76-11.15,24.91-24.91,24.91S0,80.81,0,67.05s11.15-24.91,24.91-24.91,24.91,11.15,24.91,24.91"/><path class="cls-2" d="M281.64.05L254.56,0c-1.62,0-3.07.98-3.68,2.48l-85.43,212.51c-.63,1.57-2.75,1.48-3.39-.08-18.1-44.35-68.75-70.88-81.76-76.93-.02,0-.04-.02-.06-.03-2.51-1.12-5.31,1.01-5.27,3.76l.4,24.67c.11,4.54.15,6.25,3.05,7.79,3.75,2,58.23,29.27,64.16,87.17.22,2.18,1.67,4.03,3.86,4.03h24.2s6.94,0,6.94,0c1.62.01,3.09-.97,3.7-2.47L285.29,5.48c1.05-2.59-.86-5.43-3.66-5.43"/></g></svg>